<svg width="109" height="26" viewBox="0 0 109 26" fill="none" xmlns="http://www.w3.org/2000/svg">
<path fill-rule="evenodd" clip-rule="evenodd" d="M11.7884 0.945312C5.27822 0.945312 0 6.33052 0 12.9727C0 19.6148 5.27822 25 11.7884 25C18.2986 25 23.5768 19.6148 23.5768 12.9727C23.5768 6.33052 18.2986 0.945312 11.7884 0.945312ZM16.2724 20.4891C16.9111 19.2313 17.9239 18.1992 19.1554 17.5476C20.7763 16.6907 21.8832 14.9637 21.8832 12.9728C21.8832 10.9818 20.7763 9.25482 19.1554 8.39794C17.9239 7.74628 16.9111 6.71299 16.2724 5.45647C15.4325 3.80272 13.7399 2.67342 11.7885 2.67342C9.83703 2.67342 8.14438 3.80272 7.30453 5.45647C6.66581 6.71299 5.65305 7.74628 4.42149 8.39794C2.8006 9.25482 1.69373 10.9818 1.69373 12.9728C1.69373 14.9637 2.8006 16.6907 4.42149 17.5476C5.65422 18.1992 6.66581 19.2325 7.30453 20.4891C8.14438 22.1428 9.83703 23.2721 11.7885 23.2721C13.7399 23.2721 15.4325 22.1428 16.2724 20.4891Z" fill="#161814"/>
<path fill-rule="evenodd" clip-rule="evenodd" d="M31.3973 2.17425H39.7614C44.1382 2.17425 47.0774 4.83864 47.0774 8.67223C47.0774 12.5058 44.1364 15.2048 39.7596 15.2048H33.9451V23.7662H31.3973V2.17425ZM33.9469 12.8063H40.1528C43.1917 12.8063 44.3677 11.6061 44.3677 8.67405C44.3677 5.74195 43.1899 4.60735 40.1528 4.60735H33.9469V12.8063Z" fill="#161814"/>
<path d="M75.968 10.4352V8.10223H71.6126V2.20342H69.0968V8.10223H65.2555V10.4352H69.0968V19.9344C69.0968 22.2346 70.6002 23.768 72.8544 23.768H75.9574V21.4351H71.6126V10.4352H75.968Z" fill="#161814"/>
<path fill-rule="evenodd" clip-rule="evenodd" d="M60.8644 8.10233V10.6075C59.6769 8.80204 57.812 7.76905 55.454 7.76905C55.3846 7.76905 55.3155 7.76986 55.2468 7.77147C55.1816 7.76986 55.116 7.76905 55.05 7.76905C50.6394 7.76905 47.7001 11.0363 47.7001 15.9334C47.7001 20.8306 50.6412 24.0978 55.05 24.0978C55.116 24.0978 55.1816 24.097 55.2469 24.0953C55.281 24.0961 55.3151 24.0967 55.3494 24.0971C55.3842 24.0976 55.419 24.0978 55.454 24.0978C57.812 24.0978 59.6769 23.0648 60.8644 21.2593V23.7645H63.3802V8.10233H60.8644ZM55.6371 21.7666C51.9791 21.7666 50.28 19.8999 50.28 15.9352C50.28 11.9705 51.9791 10.1038 55.6371 10.1038C59.2952 10.1038 60.9943 11.9705 60.9943 15.9352C60.9943 19.8999 59.297 21.7666 55.6371 21.7666Z" fill="#161814"/>
<path d="M79.9464 15.9351C79.947 19.9332 81.6461 21.7993 85.2716 21.7993C87.6112 21.7993 89.0275 21.0053 89.7908 18.5813L92.3706 19.0111C91.2284 22.4295 88.6467 24.1013 85.3036 24.1013C80.5994 24.1013 77.3648 20.8359 77.3648 15.937C77.3648 11.038 80.5976 7.77261 85.3036 7.77261C88.6307 7.77261 91.2017 9.42624 92.351 12.8082L89.7516 13.1779C88.9795 10.8413 87.5739 10.0709 85.2698 10.0709C81.6461 10.0709 79.947 11.9371 79.9464 15.9351Z" fill="#161814"/>
<path d="M100.466 7.90228C100.506 7.89299 100.546 7.88392 100.587 7.87509V7.87691C101.823 7.60707 103.101 7.66981 104.195 8.02112C106.563 8.70186 107.848 10.7428 107.848 13.9012V23.7665H105.332V14.0687C105.332 11.5009 103.83 10.1022 101.544 10.1022C98.5391 10.1022 96.6442 12.4679 96.6442 16.5346V23.7665H94.1284V2.17461H96.6442V11.021C97.3496 9.43451 98.5385 8.27802 100.466 7.90228Z" fill="#161814"/>
</svg>
